<?xml version="1.0" encoding="utf-8"?>
<!-- Generator: Adobe Illustrator 27.5.0, SVG Export Plug-In . SVG Version: 6.00 Build 0)  -->
<svg version="1.1" xmlns="http://www.w3.org/2000/svg" xmlns:xlink="http://www.w3.org/1999/xlink" x="0px" y="0px"
	 viewBox="0 0 500 500" style="enable-background:new 0 0 500 500;" xml:space="preserve">
<g id="BACKGROUND">
	<rect x="-0.001" style="fill:#1A234A;" width="500" height="500"/>
</g>
<g id="OBJECTS">
	<g>
		<g>
			<rect x="303.339" y="99.87" style="fill:#92BFF8;" width="54.28" height="4"/>
			<path style="fill:#92BFF8;" d="M357.617,131.606c-1.105,0-2-0.896-2-2V74.533c0-1.104,0.895-2,2-2c1.104,0,2,0.896,2,2v55.073
				C359.617,130.71,358.722,131.606,357.617,131.606z"/>
		</g>
		<g>
			<path style="fill:#2C3874;" d="M316.119,119.714h23.308v-4h-23.308c-1.105,0-2,0.895-2,2l0,0
				C314.119,118.819,315.014,119.714,316.119,119.714z"/>
			<polyline style="fill:#2C3874;" points="335.837,125.766 343.889,117.715 335.837,109.663 			"/>
		</g>
	</g>
	<g>
		<rect x="247.129" y="152.5" style="fill:#92BFF8;" width="4" height="60.47"/>
		<g>
			<path style="fill:#2C3874;" d="M232.88,180.792v-14.307h-4v14.307c0,1.105,0.895,2,2,2l0,0
				C231.985,182.792,232.88,181.897,232.88,180.792z"/>
			<polyline style="fill:#2C3874;" points="238.931,170.074 230.88,162.023 222.829,170.074 			"/>
		</g>
	</g>
	<g>
		<g>
			<path style="fill:#92BFF8;" d="M205.593,419.441H97.107c-13.309,0-24.137-10.828-24.137-24.137V270.137
				C72.97,256.828,83.798,246,97.107,246h83.229v4H97.107c-11.104,0-20.137,9.033-20.137,20.137v125.168
				c0,11.104,9.034,20.137,20.137,20.137h108.486V419.441z"/>
			<path style="fill:#92BFF8;" d="M205.593,446.064c-1.104,0-2-0.896-2-2v-53.92c0-1.104,0.896-2,2-2c1.105,0,2,0.896,2,2v53.92
				C207.593,445.168,206.697,446.064,205.593,446.064z"/>
		</g>
		<g>
			<path style="fill:#2C3874;" d="M144.717,398.371h-34.775c-7.286,0-13.193-5.907-13.193-13.193V348.87h4v36.309
				c0,5.077,4.116,9.192,9.192,9.192h34.776c1.105,0,2,0.895,2,2l0,0C146.717,397.475,145.822,398.371,144.717,398.371z"/>
			<polyline style="fill:#2C3874;" points="106.801,352.459 98.749,344.408 90.698,352.459 			"/>
		</g>
	</g>
	<g>
		
			<ellipse transform="matrix(0.9871 -0.1602 0.1602 0.9871 -12.647 41.3253)" style="fill:#FFFFFF;" cx="250" cy="99.107" rx="44.131" ry="44.131"/>
		<path style="fill:#92BFF8;" d="M285.113,96.238l4.904-1.99c-0.666-3.348-0.521-2.618-1.186-5.965l-5.292,0.038
			c-1.064-2.569-1.132-2.733-2.196-5.301l3.769-3.715c-1.896-2.838-1.483-2.219-3.379-5.057l-4.875,2.061
			c-1.966-1.966-2.092-2.092-4.058-4.058l2.061-4.875c-2.838-1.896-2.219-1.483-5.057-3.379l-3.715,3.769
			c-2.569-1.064-2.733-1.132-5.301-2.196l0.038-5.292c-3.348-0.666-2.618-0.521-5.965-1.187l-1.99,4.904c-2.78,0-2.958,0-5.738,0
			l-1.99-4.904c-3.348,0.666-2.618,0.521-5.965,1.187l0.038,5.292c-2.568,1.064-2.733,1.132-5.301,2.196l-3.715-3.769
			c-2.838,1.896-2.219,1.483-5.057,3.379l2.06,4.875c-1.966,1.966-2.092,2.092-4.057,4.058l-4.875-2.061
			c-1.896,2.838-1.483,2.219-3.379,5.057l3.769,3.715c-1.064,2.569-1.132,2.733-2.196,5.301l-5.292-0.038
			c-0.666,3.348-0.521,2.618-1.187,5.965l4.904,1.99c0,2.78,0,2.958,0,5.738l-4.904,1.99c0.666,3.348,0.521,2.618,1.187,5.965
			l5.292-0.038c1.064,2.569,1.132,2.733,2.196,5.302l-3.769,3.715c1.896,2.838,1.483,2.219,3.379,5.057l4.875-2.061
			c1.966,1.966,2.092,2.092,4.057,4.058l-2.06,4.875c2.838,1.896,2.219,1.483,5.057,3.379l3.715-3.769
			c2.569,1.064,2.733,1.132,5.301,2.196l-0.038,5.292c3.348,0.666,2.618,0.521,5.965,1.186l1.99-4.904c2.78,0,2.958,0,5.738,0
			l1.99,4.904c3.347-0.666,2.618-0.521,5.965-1.186l-0.038-5.292c2.568-1.064,2.733-1.132,5.301-2.196l3.715,3.769
			c2.838-1.896,2.219-1.483,5.057-3.379l-2.061-4.875c1.966-1.966,2.092-2.092,4.058-4.058l4.875,2.061
			c1.896-2.838,1.483-2.219,3.379-5.057l-3.769-3.715c1.064-2.569,1.132-2.733,2.196-5.302l5.292,0.038
			c0.666-3.348,0.52-2.618,1.186-5.965l-4.904-1.99C285.113,99.196,285.113,99.018,285.113,96.238z M250,130.099
			c-17.117,0-30.993-13.876-30.993-30.992c0-17.117,13.876-30.992,30.993-30.992c17.116,0,30.992,13.876,30.992,30.992
			C280.992,116.223,267.117,130.099,250,130.099z"/>
		<path style="fill:#92BFF8;" d="M250,154.515c-30.552,0-55.408-24.856-55.408-55.408c0-30.552,24.856-55.408,55.408-55.408
			c30.552,0,55.408,24.856,55.408,55.408C305.408,129.659,280.552,154.515,250,154.515z M250,47.699
			c-28.347,0-51.408,23.062-51.408,51.408c0,28.346,23.062,51.408,51.408,51.408c28.346,0,51.408-23.062,51.408-51.408
			C301.408,70.76,278.346,47.699,250,47.699z"/>
	</g>
	<g>
		<g>
			<path style="fill:#2C3874;" d="M76.838,174.609h8.986l2.753-7.94c2.616-1.092,3.913-1.661,6.529-2.753l7.44,3.618
				c3.162-3.253,3.185-3.253,6.347-6.507l-3.526-7.598c1.069-2.662,1.615-4.027,2.685-6.689l7.758-2.821v-9.169l-7.758-2.821
				c-1.069-2.684-1.615-4.027-2.685-6.689l3.526-7.621c-3.162-3.231-3.185-3.231-6.347-6.484l-7.44,3.618
				c-2.616-1.115-3.913-1.661-6.529-2.775l-2.753-7.917h-8.986l-2.753,7.917c-2.616,1.115-3.936,1.661-6.529,2.775l-7.44-3.618
				c-3.162,3.253-3.185,3.253-6.347,6.484l3.526,7.621c-1.069,2.662-1.615,4.005-2.707,6.689l-7.758,2.821v9.169l7.758,2.821
				c1.092,2.662,1.638,4.027,2.707,6.689l-3.526,7.598c3.162,3.254,3.185,3.254,6.347,6.507l7.44-3.618
				c2.594,1.092,3.913,1.661,6.529,2.753L76.838,174.609z M70.494,139.327c0-6.203,5.036-11.24,11.24-11.24
				c6.217,0,11.254,5.037,11.254,11.24c0,6.217-5.036,11.254-11.254,11.254C75.531,150.581,70.494,145.544,70.494,139.327z"/>
			<path style="fill:#2C3874;" d="M132.548,116.122l6.064-3.249l-1.013-6.353c1.37-1.683,2.04-2.536,3.41-4.218l6.328-0.249
				c0.958-3.339,0.973-3.347,1.931-6.686l-5.127-3.852c-0.241-2.183-0.366-3.301-0.607-5.484l4.215-4.708l-3.315-6.187l-6.255,0.901
				c-1.692-1.425-2.546-2.133-4.23-3.543l-0.376-6.417c-3.302-1.037-3.317-1.029-6.627-2.081l-3.712,5.131
				c-2.168,0.194-3.241,0.294-5.409,0.488l-4.72-4.347l-6.064,3.249l1.005,6.338c-1.362,1.698-2.055,2.544-3.402,4.233l-6.328,0.249
				c-0.958,3.339-0.973,3.347-1.939,6.67l5.135,3.868c0.241,2.183,0.358,3.286,0.592,5.493l-4.215,4.708l3.315,6.187l6.255-0.901
				c1.699,1.401,2.561,2.125,4.245,3.535l0.368,6.402c3.31,1.052,3.326,1.044,6.636,2.096l3.712-5.131
				c2.145-0.201,3.241-0.294,5.401-0.503L132.548,116.122z M110.963,97.041c-3.586-6.694-1.064-15.04,5.63-18.626
				c6.709-3.594,15.055-1.072,18.641,5.622c3.594,6.709,1.072,15.055-5.637,18.649C122.904,106.272,114.557,103.749,110.963,97.041z
				"/>
			<path style="fill:#2C3874;" d="M77.747,139.332c0-2.203,1.789-3.992,3.992-3.992c2.208,0,3.997,1.789,3.997,3.992
				c0,2.208-1.789,3.997-3.997,3.997C79.535,143.329,77.747,141.54,77.747,139.332z"/>
		</g>
		<g>
			<path style="fill:#2C3874;" d="M423.162,325.391h-8.986l-2.753,7.94c-2.616,1.092-3.913,1.661-6.529,2.753l-7.44-3.618
				c-3.162,3.253-3.185,3.253-6.347,6.507l3.526,7.598c-1.069,2.662-1.615,4.027-2.685,6.689l-7.758,2.821v9.169l7.758,2.821
				c1.069,2.684,1.615,4.027,2.685,6.689l-3.526,7.621c3.162,3.231,3.185,3.231,6.347,6.484l7.44-3.618
				c2.616,1.115,3.913,1.661,6.529,2.775l2.753,7.917h8.986l2.753-7.917c2.616-1.115,3.936-1.661,6.529-2.775l7.44,3.618
				c3.162-3.253,3.185-3.253,6.347-6.484l-3.526-7.621c1.069-2.662,1.615-4.005,2.707-6.689l7.758-2.821v-9.169l-7.758-2.821
				c-1.092-2.662-1.638-4.027-2.707-6.689l3.526-7.598c-3.162-3.254-3.185-3.254-6.347-6.507l-7.44,3.618
				c-2.594-1.092-3.913-1.661-6.529-2.753L423.162,325.391z M429.506,360.673c0,6.203-5.036,11.24-11.24,11.24
				c-6.217,0-11.254-5.037-11.254-11.24c0-6.217,5.036-11.254,11.254-11.254C424.469,349.419,429.506,354.456,429.506,360.673z"/>
			<path style="fill:#2C3874;" d="M367.452,383.878l-6.064,3.249l1.013,6.353c-1.37,1.683-2.04,2.536-3.41,4.219l-6.328,0.249
				c-0.958,3.339-0.973,3.347-1.931,6.686l5.127,3.852c0.241,2.183,0.366,3.301,0.607,5.484l-4.215,4.708l3.315,6.187l6.255-0.901
				c1.692,1.425,2.546,2.133,4.23,3.543l0.376,6.417c3.302,1.037,3.317,1.029,6.627,2.081l3.712-5.131
				c2.169-0.194,3.241-0.294,5.409-0.488l4.72,4.347l6.064-3.249l-1.005-6.338c1.362-1.698,2.055-2.544,3.402-4.234l6.328-0.249
				c0.958-3.339,0.973-3.347,1.939-6.67l-5.135-3.868c-0.241-2.183-0.358-3.286-0.591-5.492l4.215-4.708l-3.315-6.187l-6.255,0.901
				c-1.699-1.401-2.561-2.125-4.245-3.534l-0.368-6.402c-3.31-1.052-3.326-1.044-6.636-2.096l-3.712,5.131
				c-2.145,0.201-3.241,0.294-5.401,0.503L367.452,383.878z M389.037,402.959c3.586,6.693,1.064,15.04-5.63,18.626
				c-6.709,3.595-15.055,1.072-18.641-5.622c-3.594-6.709-1.072-15.055,5.637-18.649
				C377.096,393.728,385.443,396.251,389.037,402.959z"/>
			<path style="fill:#2C3874;" d="M422.253,360.668c0,2.203-1.789,3.992-3.992,3.992c-2.208,0-3.997-1.789-3.997-3.992
				c0-2.208,1.789-3.997,3.997-3.997C420.465,356.671,422.253,358.46,422.253,360.668z"/>
		</g>
	</g>
	<g>
		<ellipse style="opacity:0.53;fill:#2C3874;" cx="250" cy="327.642" rx="134.19" ry="24.817"/>
		<g>
			<path style="fill:#CBF0FF;" d="M334.797,190.702H165.201c-3.377,0-6.114,2.738-6.114,6.114v100.895
				c0,3.377,2.737,6.114,6.114,6.114h169.595c3.377,0,6.114-2.737,6.114-6.114V196.816
				C340.911,193.44,338.173,190.702,334.797,190.702z"/>
			<path style="fill:#2C3874;" d="M329.163,197.403H170.835c-2.214,0-4.01,1.795-4.01,4.01v91.702c0,2.215,1.795,4.01,4.01,4.01
				h158.328c2.214,0,4.01-1.795,4.01-4.01v-91.702C333.172,199.199,331.377,197.403,329.163,197.403z"/>
			<path style="fill:#92BFF8;" d="M349.7,324.456H150.298v1.827c0,7.439,6.031,13.47,13.47,13.47H336.23
				c7.439,0,13.469-6.031,13.469-13.47V324.456z"/>
			<path style="opacity:0.53;fill:#2C3874;" d="M349.7,324.456H150.298v1.827c0,7.439,6.031,13.47,13.47,13.47H336.23
				c7.439,0,13.469-6.031,13.469-13.47V324.456z"/>
			<polygon style="fill:#92BFF8;" points="335.797,303.825 164.201,303.825 150.298,324.277 349.7,324.277 			"/>
			<polygon style="fill:#FFFFFF;" points="330.776,308.519 169.222,308.519 162.191,318.343 337.806,318.343 			"/>
			<path style="fill:#2C3874;" d="M270.567,332.032h-41.135c-4.184,0-7.576-3.392-7.576-7.576l0,0h56.286l0,0
				C278.143,328.64,274.751,332.032,270.567,332.032z"/>
			<g>
				<path style="fill:#2C3874;" d="M255.459,193.28h-18.268c-0.527,0-0.954,0.427-0.954,0.954v0c0,0.527,0.427,0.954,0.954,0.954
					h18.268c0.527,0,0.954-0.427,0.954-0.954v0C256.414,193.707,255.986,193.28,255.459,193.28z"/>
				<path style="fill:#2C3874;" d="M263.763,194.234c0-0.897-0.727-1.624-1.624-1.624s-1.623,0.727-1.623,1.624
					c0,0.896,0.727,1.623,1.623,1.623S263.763,195.131,263.763,194.234z"/>
			</g>
		</g>
	</g>
	<g>
		<g>
			<g>
				<rect x="386.714" y="31.677" style="fill:#2C3874;" width="79.567" height="188.434"/>
				<rect x="368.758" y="31.677" style="fill:#CBF0FF;" width="72.303" height="188.434"/>
				<rect x="373.795" y="37.538" style="fill:#92BFF8;" width="62.228" height="176.712"/>
			</g>
		</g>
		<rect x="448.031" y="184.022" style="fill:#92BFF8;" width="12.714" height="22.909"/>
		<rect x="451.21" y="188.698" style="fill:#1A234A;" width="6.357" height="13.558"/>
		<g>
			<rect x="430.309" y="187.292" style="fill:#92BFF8;" width="18.719" height="1"/>
			<rect x="430.309" y="191.167" style="fill:#92BFF8;" width="18.719" height="1"/>
			<rect x="430.309" y="195.042" style="fill:#92BFF8;" width="18.719" height="1"/>
			<rect x="430.309" y="198.916" style="fill:#92BFF8;" width="18.719" height="1"/>
			<rect x="430.309" y="202.79" style="fill:#92BFF8;" width="18.719" height="1"/>
		</g>
		<g>
			<rect x="379.61" y="184.023" style="fill:#2C3874;" width="50.7" height="22.909"/>
			<path style="fill:#1A234A;" d="M385.628,202.774L385.628,202.774c-0.831,0-1.505-0.674-1.505-1.505v-11.582
				c0-0.831,0.674-1.505,1.505-1.505l0,0c0.831,0,1.505,0.674,1.505,1.505v11.582C387.133,202.1,386.459,202.774,385.628,202.774z"
				/>
			<path style="fill:#1A234A;" d="M393.455,202.774L393.455,202.774c-0.831,0-1.505-0.674-1.505-1.505v-11.582
				c0-0.831,0.674-1.505,1.505-1.505h0c0.831,0,1.505,0.674,1.505,1.505v11.582C394.96,202.1,394.286,202.774,393.455,202.774z"/>
			<path style="fill:#1A234A;" d="M401.282,202.774L401.282,202.774c-0.831,0-1.505-0.674-1.505-1.505v-11.582
				c0-0.831,0.674-1.505,1.505-1.505l0,0c0.831,0,1.505,0.674,1.505,1.505v11.582C402.787,202.1,402.113,202.774,401.282,202.774z"
				/>
			<path style="fill:#1A234A;" d="M409.108,202.774L409.108,202.774c-0.831,0-1.505-0.674-1.505-1.505v-11.582
				c0-0.831,0.674-1.505,1.505-1.505l0,0c0.831,0,1.505,0.674,1.505,1.505v11.582C410.614,202.1,409.94,202.774,409.108,202.774z"/>
			<path style="fill:#1A234A;" d="M416.935,202.774L416.935,202.774c-0.831,0-1.505-0.674-1.505-1.505v-11.582
				c0-0.831,0.674-1.505,1.505-1.505l0,0c0.831,0,1.505,0.674,1.505,1.505v11.582C418.44,202.1,417.767,202.774,416.935,202.774z"/>
			<path style="fill:#1A234A;" d="M424.762,202.774L424.762,202.774c-0.831,0-1.505-0.674-1.505-1.505v-11.582
				c0-0.831,0.674-1.505,1.505-1.505l0,0c0.831,0,1.505,0.674,1.505,1.505v11.582C426.267,202.1,425.593,202.774,424.762,202.774z"
				/>
		</g>
		<g>
			<rect x="379.61" y="155.607" style="fill:#2C3874;" width="50.7" height="22.909"/>
			<path style="fill:#1A234A;" d="M385.628,174.358L385.628,174.358c-0.831,0-1.505-0.674-1.505-1.505v-11.582
				c0-0.831,0.674-1.505,1.505-1.505l0,0c0.831,0,1.505,0.674,1.505,1.505v11.582C387.133,173.684,386.459,174.358,385.628,174.358z
				"/>
			<path style="fill:#1A234A;" d="M393.455,174.358L393.455,174.358c-0.831,0-1.505-0.674-1.505-1.505v-11.582
				c0-0.831,0.674-1.505,1.505-1.505h0c0.831,0,1.505,0.674,1.505,1.505v11.582C394.96,173.684,394.286,174.358,393.455,174.358z"/>
			<path style="fill:#1A234A;" d="M424.049,174.358h-22.054c-1.225,0-2.218-0.993-2.218-2.218v-10.156
				c0-1.225,0.993-2.218,2.218-2.218h22.054c1.225,0,2.218,0.993,2.218,2.218v10.156
				C426.267,173.365,425.274,174.358,424.049,174.358z"/>
			<path style="fill:#FE6C03;" d="M407.404,167.062c0-1.35-1.095-2.445-2.445-2.445c-1.35,0-2.445,1.094-2.445,2.445
				c0,1.35,1.095,2.445,2.445,2.445C406.31,169.506,407.404,168.412,407.404,167.062z"/>
			<path style="fill:#FE6C03;" d="M415.467,167.062c0-1.35-1.095-2.445-2.445-2.445c-1.35,0-2.445,1.094-2.445,2.445
				c0,1.35,1.094,2.445,2.445,2.445C414.372,169.506,415.467,168.412,415.467,167.062z"/>
			<path style="fill:#FEC303;" d="M423.529,167.062c0-1.35-1.095-2.445-2.445-2.445s-2.445,1.094-2.445,2.445
				c0,1.35,1.095,2.445,2.445,2.445S423.529,168.412,423.529,167.062z"/>
		</g>
		<g>
			<rect x="379.61" y="127.191" style="fill:#2C3874;" width="50.7" height="22.909"/>
			<path style="fill:#1A234A;" d="M385.628,145.942L385.628,145.942c-0.831,0-1.505-0.674-1.505-1.505v-11.582
				c0-0.831,0.674-1.505,1.505-1.505l0,0c0.831,0,1.505,0.674,1.505,1.505v11.582C387.133,145.268,386.459,145.942,385.628,145.942z
				"/>
			<path style="fill:#1A234A;" d="M393.455,145.942L393.455,145.942c-0.831,0-1.505-0.674-1.505-1.505v-11.582
				c0-0.831,0.674-1.505,1.505-1.505h0c0.831,0,1.505,0.674,1.505,1.505v11.582C394.96,145.268,394.286,145.942,393.455,145.942z"/>
			<path style="fill:#1A234A;" d="M424.049,145.942h-22.054c-1.225,0-2.218-0.993-2.218-2.218v-10.156
				c0-1.225,0.993-2.218,2.218-2.218h22.054c1.225,0,2.218,0.993,2.218,2.218v10.156
				C426.267,144.949,425.274,145.942,424.049,145.942z"/>
			<circle style="fill:#FEC303;" cx="404.96" cy="138.645" r="2.445"/>
			<circle style="fill:#FE6C03;" cx="413.022" cy="138.645" r="2.445"/>
			<circle style="fill:#FEC303;" cx="421.084" cy="138.645" r="2.445"/>
		</g>
		<g>
			<rect x="379.61" y="98.775" style="fill:#2C3874;" width="50.7" height="22.909"/>
			<path style="fill:#1A234A;" d="M385.628,117.526L385.628,117.526c-0.831,0-1.505-0.674-1.505-1.505v-11.582
				c0-0.831,0.674-1.505,1.505-1.505l0,0c0.831,0,1.505,0.674,1.505,1.505v11.582C387.133,116.852,386.459,117.526,385.628,117.526z
				"/>
			<path style="fill:#1A234A;" d="M393.455,117.526L393.455,117.526c-0.831,0-1.505-0.674-1.505-1.505v-11.582
				c0-0.831,0.674-1.505,1.505-1.505h0c0.831,0,1.505,0.674,1.505,1.505v11.582C394.96,116.852,394.286,117.526,393.455,117.526z"/>
			<path style="fill:#1A234A;" d="M424.049,117.526h-22.054c-1.225,0-2.218-0.993-2.218-2.218v-10.156
				c0-1.225,0.993-2.218,2.218-2.218h22.054c1.225,0,2.218,0.993,2.218,2.218v10.156
				C426.267,116.533,425.274,117.526,424.049,117.526z"/>
			<path style="fill:#FE6C03;" d="M407.404,110.229c0-1.35-1.095-2.445-2.445-2.445c-1.35,0-2.445,1.095-2.445,2.445
				c0,1.35,1.095,2.445,2.445,2.445C406.31,112.674,407.404,111.579,407.404,110.229z"/>
			<path style="fill:#FEC303;" d="M415.467,110.229c0-1.35-1.095-2.445-2.445-2.445c-1.35,0-2.445,1.095-2.445,2.445
				c0,1.35,1.094,2.445,2.445,2.445C414.372,112.674,415.467,111.579,415.467,110.229z"/>
			<path style="fill:#FEC303;" d="M423.529,110.229c0-1.35-1.095-2.445-2.445-2.445s-2.445,1.095-2.445,2.445
				c0,1.35,1.095,2.445,2.445,2.445S423.529,111.579,423.529,110.229z"/>
		</g>
		<g>
			<rect x="379.61" y="43.985" style="fill:#2C3874;" width="50.7" height="49.283"/>
		</g>
		<g>
			<rect x="384.123" y="43.985" style="fill:#1A234A;" width="6.562" height="49.283"/>
		</g>
		<g>
			<rect x="395.644" y="43.985" style="fill:#1A234A;" width="6.562" height="49.283"/>
		</g>
		<g>
			<rect x="407.164" y="43.985" style="fill:#1A234A;" width="6.562" height="49.283"/>
		</g>
		<g>
			<rect x="418.685" y="43.985" style="fill:#1A234A;" width="6.562" height="49.283"/>
		</g>
		<rect x="418.639" y="47.903" style="fill:#FEC303;" width="6.607" height="4.304"/>
		<rect x="418.639" y="55.305" style="fill:#FEC303;" width="6.607" height="4.304"/>
		<rect x="418.639" y="62.706" style="fill:#FEC303;" width="6.607" height="4.304"/>
		<rect x="418.639" y="70.107" style="fill:#FEC303;" width="6.607" height="4.304"/>
		<rect x="418.639" y="77.509" style="fill:#FE6C03;" width="6.607" height="4.304"/>
		<rect x="418.639" y="84.91" style="fill:#FEC303;" width="6.607" height="4.304"/>
	</g>
	<g>
		<g>
			<path style="fill:#CBF0FF;" d="M271.522,368.484h-43.119c-3.315,0-6.002,2.687-6.002,6.002V466.6
				c0,3.315,2.687,6.002,6.002,6.002h43.119c3.315,0,6.002-2.687,6.002-6.002v-92.114
				C277.525,371.171,274.837,368.484,271.522,368.484z"/>
			<path style="fill:#2C3874;" d="M270.926,372.585h-41.927c-1.353,0-2.449,1.097-2.449,2.45v91.018
				c0,1.353,1.097,2.449,2.449,2.449h41.927c1.353,0,2.449-1.097,2.449-2.449v-91.018
				C273.376,373.681,272.279,372.585,270.926,372.585z"/>
			<path style="fill:#CBF0FF;" d="M222.658,393.793h-0.365c-1.056,0-1.912-0.856-1.912-1.912v-9.471
				c0-1.056,0.856-1.912,1.912-1.912h0.365c1.056,0,1.912,0.856,1.912,1.912v9.471C224.57,392.937,223.714,393.793,222.658,393.793z
				"/>
			<path style="fill:#CBF0FF;" d="M277.707,393.793h-0.365c-1.056,0-1.912-0.856-1.912-1.912v-9.471
				c0-1.056,0.856-1.912,1.912-1.912h0.365c1.056,0,1.912,0.856,1.912,1.912v9.471C279.619,392.937,278.763,393.793,277.707,393.793
				z"/>
			<path style="fill:#CBF0FF;" d="M222.658,409.274h-0.365c-1.056,0-1.912-0.856-1.912-1.912v-9.471
				c0-1.056,0.856-1.912,1.912-1.912h0.365c1.056,0,1.912,0.856,1.912,1.912v9.471C224.57,408.418,223.714,409.274,222.658,409.274z
				"/>
			<path style="fill:#2A4780;" d="M254.931,369.895h-9.936c-0.404,0-0.732,0.328-0.732,0.732v0.14c0,0.404,0.328,0.732,0.732,0.732
				h9.936c0.404,0,0.732-0.328,0.732-0.732v-0.14C255.663,370.223,255.335,369.895,254.931,369.895z"/>
		</g>
		<g>
			
				<ellipse transform="matrix(0.9871 -0.1602 0.1602 0.9871 -59.0283 43.6454)" style="opacity:0.53;fill:#2C3874;" cx="241.2" cy="387.951" rx="10.707" ry="10.707"/>
			
				<ellipse transform="matrix(0.7071 -0.7071 0.7071 0.7071 -203.6772 284.1828)" style="fill:#FEC303;" cx="241.2" cy="387.951" rx="8.763" ry="8.763"/>
		</g>
		<path style="fill:#CBF0FF;" d="M266.933,382.838h-11.27c-0.552,0-1-0.447-1-1s0.448-1,1-1h11.27c0.552,0,1,0.447,1,1
			S267.486,382.838,266.933,382.838z"/>
		<path style="fill:#CBF0FF;" d="M262.296,388.951h-6.632c-0.552,0-1-0.447-1-1c0-0.553,0.448-1,1-1h6.632c0.552,0,1,0.447,1,1
			C263.296,388.504,262.848,388.951,262.296,388.951z"/>
		<path style="opacity:0.53;fill:#2C3874;" d="M266.985,424.522h-34.503c-1.098,0-1.988-0.89-1.988-1.988v-19.015
			c0-1.098,0.89-1.988,1.988-1.988h34.503c1.098,0,1.988,0.89,1.988,1.988v19.015C268.974,423.632,268.083,424.522,266.985,424.522z
			"/>
		<path style="opacity:0.53;fill:#2C3874;" d="M266.985,441.307h-34.503c-1.098,0-1.988-0.89-1.988-1.988v-8.845
			c0-1.098,0.89-1.988,1.988-1.988h34.503c1.098,0,1.988,0.89,1.988,1.988v8.845C268.974,440.417,268.083,441.307,266.985,441.307z"
			/>
		<path style="fill:#2C3874;" d="M241.201,382.039c-2.414,0-4.37,1.956-4.37,4.37c0,3.812,4.37,8.065,4.37,8.065
			s4.37-4.253,4.37-8.065C245.57,383.995,243.614,382.039,241.201,382.039z M241.201,388.977c-1.419,0-2.568-1.15-2.568-2.568
			c0-1.418,1.15-2.568,2.568-2.568c1.418,0,2.568,1.15,2.568,2.568C243.768,387.827,242.619,388.977,241.201,388.977z"/>
		<path style="fill:#CBF0FF;" d="M265.116,408.434H234.64c-0.552,0-1-0.447-1-1s0.448-1,1-1h30.476c0.552,0,1,0.447,1,1
			S265.668,408.434,265.116,408.434z"/>
		<path style="fill:#CBF0FF;" d="M265.116,413.776H234.64c-0.552,0-1-0.447-1-1c0-0.553,0.448-1,1-1h30.476c0.552,0,1,0.447,1,1
			C266.116,413.329,265.668,413.776,265.116,413.776z"/>
		<path style="fill:#CBF0FF;" d="M244.839,419.118H234.64c-0.552,0-1-0.447-1-1c0-0.553,0.448-1,1-1h10.199c0.552,0,1,0.447,1,1
			C245.839,418.671,245.391,419.118,244.839,419.118z"/>
		<path style="fill:#CBF0FF;" d="M238.556,431.543h-3.949c-0.761,0-1.378,0.617-1.378,1.378v3.949c0,0.761,0.617,1.378,1.378,1.378
			h3.949c0.761,0,1.378-0.617,1.378-1.378v-3.949C239.935,432.16,239.318,431.543,238.556,431.543z"/>
		<path style="fill:#CBF0FF;" d="M247.43,431.543h-3.949c-0.761,0-1.378,0.617-1.378,1.378v3.949c0,0.761,0.617,1.378,1.378,1.378
			h3.949c0.761,0,1.378-0.617,1.378-1.378v-3.949C248.809,432.16,248.191,431.543,247.43,431.543z"/>
		<path style="fill:#CBF0FF;" d="M256.304,431.543h-3.949c-0.761,0-1.378,0.617-1.378,1.378v3.949c0,0.761,0.617,1.378,1.378,1.378
			h3.949c0.761,0,1.378-0.617,1.378-1.378v-3.949C257.682,432.16,257.065,431.543,256.304,431.543z"/>
		<path style="fill:#CBF0FF;" d="M265.178,431.543h-3.949c-0.761,0-1.378,0.617-1.378,1.378v3.949c0,0.761,0.617,1.378,1.378,1.378
			h3.949c0.761,0,1.378-0.617,1.378-1.378v-3.949C266.556,432.16,265.939,431.543,265.178,431.543z"/>
		<path style="opacity:0.53;fill:#2C3874;" d="M266.933,449.69h-34.495c-0.605,0-1.095-0.49-1.095-1.095
			c0-0.605,0.49-1.095,1.095-1.095h34.495c0.605,0,1.095,0.49,1.095,1.095C268.029,449.2,267.538,449.69,266.933,449.69z"/>
		<path style="opacity:0.53;fill:#2C3874;" d="M255.663,455.882h-23.225c-0.605,0-1.095-0.49-1.095-1.095
			c0-0.605,0.49-1.095,1.095-1.095h23.225c0.605,0,1.095,0.49,1.095,1.095C256.759,455.392,256.268,455.882,255.663,455.882z"/>
		<path style="opacity:0.53;fill:#2C3874;" d="M243.613,462.272h-11.176c-0.605,0-1.095-0.49-1.095-1.095
			c0-0.605,0.49-1.095,1.095-1.095h11.176c0.605,0,1.095,0.49,1.095,1.095C244.709,461.782,244.218,462.272,243.613,462.272z"/>
	</g>
	<g>
		<g>
			<g>
				<path style="opacity:0.53;fill:#2C3874;" d="M205.444,222.867h-30.038c-1.439,0-2.606-1.167-2.606-2.606v-12.768
					c0-1.439,1.167-2.606,2.606-2.606h30.038c1.439,0,2.606,1.167,2.606,2.606v12.768C208.05,221.7,206.883,222.867,205.444,222.867
					z"/>
				<path style="opacity:0.53;fill:#2C3874;" d="M188.174,244.794h-12.768c-1.439,0-2.606-1.167-2.606-2.606V229.42
					c0-1.439,1.167-2.606,2.606-2.606h12.768c1.439,0,2.606,1.167,2.606,2.606v12.768
					C190.78,243.627,189.613,244.794,188.174,244.794z"/>
				<path style="fill:#CBF0FF;" d="M181.79,241.723c-3.264,0-5.919-2.655-5.919-5.919s2.655-5.919,5.919-5.919
					c3.264,0,5.919,2.655,5.919,5.919S185.054,241.723,181.79,241.723z M181.79,230.885c-2.712,0-4.919,2.206-4.919,4.919
					s2.207,4.919,4.919,4.919c2.712,0,4.919-2.206,4.919-4.919S184.503,230.885,181.79,230.885z"/>
				<path style="fill:#CBF0FF;" d="M181.79,238.268c-1.358,0-2.464-1.105-2.464-2.464s1.105-2.464,2.464-2.464
					c1.358,0,2.464,1.105,2.464,2.464S183.149,238.268,181.79,238.268z M181.79,234.34c-0.807,0-1.464,0.657-1.464,1.464
					s0.657,1.464,1.464,1.464c0.807,0,1.464-0.657,1.464-1.464S182.597,234.34,181.79,234.34z"/>
				<path style="opacity:0.53;fill:#2C3874;" d="M188.174,290.165h-12.768c-1.439,0-2.606-1.167-2.606-2.606v-35.446
					c0-1.439,1.167-2.606,2.606-2.606h12.768c1.439,0,2.606,1.167,2.606,2.606v35.446
					C190.78,288.998,189.613,290.165,188.174,290.165z"/>
				<path style="fill:#CBF0FF;" d="M203.882,210.762h-27.093c-0.552,0-1-0.448-1-1c0-0.552,0.448-1,1-1h27.093c0.552,0,1,0.448,1,1
					C204.882,210.314,204.434,210.762,203.882,210.762z"/>
				<path style="fill:#CBF0FF;" d="M188.464,216.451h-11.675c-0.552,0-1-0.448-1-1c0-0.552,0.448-1,1-1h11.675c0.552,0,1,0.448,1,1
					C189.464,216.003,189.016,216.451,188.464,216.451z"/>
				<path style="fill:#FEC303;" d="M180.947,256.284c0,1.513-1.226,2.739-2.739,2.739s-2.739-1.226-2.739-2.739
					c0-1.512,1.226-2.738,2.739-2.738S180.947,254.772,180.947,256.284z"/>
				<path style="fill:#CBF0FF;" d="M187.053,263.787h-10.583c-0.552,0-1-0.447-1-1s0.448-1,1-1h10.583c0.552,0,1,0.447,1,1
					S187.605,263.787,187.053,263.787z"/>
				<path style="fill:#CBF0FF;" d="M187.053,269.015h-10.583c-0.552,0-1-0.447-1-1c0-0.553,0.448-1,1-1h10.583c0.552,0,1,0.447,1,1
					C188.053,268.567,187.605,269.015,187.053,269.015z"/>
				<path style="fill:#CBF0FF;" d="M184.055,274.242h-7.585c-0.552,0-1-0.447-1-1c0-0.553,0.448-1,1-1h7.585c0.552,0,1,0.447,1,1
					C185.055,273.795,184.607,274.242,184.055,274.242z"/>
				<path style="opacity:0.53;fill:#2C3874;" d="M200.652,281.742h-4.715c-1.024,0-1.854,0.83-1.854,1.854v4.715
					c0,1.024,0.83,1.854,1.854,1.854h4.715c1.024,0,1.854-0.83,1.854-1.854v-4.715C202.506,282.572,201.676,281.742,200.652,281.742
					z"/>
				<path style="opacity:0.53;fill:#2C3874;" d="M212.437,281.742h-4.715c-1.024,0-1.854,0.83-1.854,1.854v4.715
					c0,1.024,0.83,1.854,1.854,1.854h4.715c1.024,0,1.854-0.83,1.854-1.854v-4.715C214.29,282.572,213.46,281.742,212.437,281.742z"
					/>
			</g>
			<g>
				<path style="opacity:0.53;fill:#2C3874;" d="M294.556,222.867h30.038c1.439,0,2.606-1.167,2.606-2.606v-12.768
					c0-1.439-1.167-2.606-2.606-2.606h-30.038c-1.439,0-2.606,1.167-2.606,2.606v12.768
					C291.95,221.7,293.117,222.867,294.556,222.867z"/>
				<path style="opacity:0.53;fill:#2C3874;" d="M311.826,290.165h12.768c1.439,0,2.606-1.167,2.606-2.606v-35.446
					c0-1.439-1.167-2.606-2.606-2.606h-12.768c-1.439,0-2.606,1.167-2.606,2.606v35.446
					C309.22,288.998,310.387,290.165,311.826,290.165z"/>
				<path style="fill:#CBF0FF;" d="M323.212,210.762h-27.094c-0.552,0-1-0.448-1-1c0-0.552,0.448-1,1-1h27.094c0.552,0,1,0.448,1,1
					C324.212,210.314,323.764,210.762,323.212,210.762z"/>
				<path style="fill:#CBF0FF;" d="M323.212,216.451h-11.676c-0.552,0-1-0.448-1-1c0-0.552,0.448-1,1-1h11.676c0.552,0,1,0.448,1,1
					C324.212,216.003,323.764,216.451,323.212,216.451z"/>
				<path style="fill:#FEC303;" d="M319.053,256.284c0,1.513,1.226,2.739,2.739,2.739s2.739-1.226,2.739-2.739
					c0-1.512-1.226-2.738-2.739-2.738S319.053,254.772,319.053,256.284z"/>
				<path style="fill:#CBF0FF;" d="M323.53,263.787h-10.583c-0.552,0-1-0.447-1-1s0.448-1,1-1h10.583c0.552,0,1,0.447,1,1
					S324.083,263.787,323.53,263.787z"/>
				<path style="fill:#CBF0FF;" d="M323.53,269.015h-10.583c-0.552,0-1-0.447-1-1c0-0.553,0.448-1,1-1h10.583c0.552,0,1,0.447,1,1
					C324.53,268.567,324.083,269.015,323.53,269.015z"/>
				<path style="fill:#CBF0FF;" d="M323.53,274.242h-7.585c-0.552,0-1-0.447-1-1c0-0.553,0.448-1,1-1h7.585c0.552,0,1,0.447,1,1
					C324.53,273.795,324.083,274.242,323.53,274.242z"/>
				<path style="opacity:0.53;fill:#2C3874;" d="M299.348,281.742h4.715c1.024,0,1.854,0.83,1.854,1.854v4.715
					c0,1.024-0.83,1.854-1.854,1.854h-4.715c-1.024,0-1.854-0.83-1.854-1.854v-4.715
					C297.494,282.572,298.324,281.742,299.348,281.742z"/>
				<path style="opacity:0.53;fill:#2C3874;" d="M287.563,281.742h4.715c1.024,0,1.854,0.83,1.854,1.854v4.715
					c0,1.024-0.83,1.854-1.854,1.854h-4.715c-1.024,0-1.854-0.83-1.854-1.854v-4.715
					C285.71,282.572,286.539,281.742,287.563,281.742z"/>
				<path style="opacity:0.53;fill:#2C3874;" d="M320.63,237.403h4.715c1.024,0,1.854,0.83,1.854,1.854v4.715
					c0,1.024-0.83,1.854-1.854,1.854h-4.715c-1.024,0-1.854-0.83-1.854-1.854v-4.715
					C318.777,238.233,319.607,237.403,320.63,237.403z"/>
				<path style="opacity:0.53;fill:#2C3874;" d="M308.846,237.403h4.715c1.024,0,1.854,0.83,1.854,1.854v4.715
					c0,1.024-0.83,1.854-1.854,1.854h-4.715c-1.024,0-1.854-0.83-1.854-1.854v-4.715
					C306.992,238.233,307.822,237.403,308.846,237.403z"/>
				<path style="opacity:0.53;fill:#2C3874;" d="M320.63,226.174h4.715c1.024,0,1.854,0.83,1.854,1.854v4.715
					c0,1.024-0.83,1.854-1.854,1.854h-4.715c-1.024,0-1.854-0.83-1.854-1.854v-4.715
					C318.777,227.004,319.607,226.174,320.63,226.174z"/>
				<path style="opacity:0.53;fill:#2C3874;" d="M308.846,226.174h4.715c1.024,0,1.854,0.83,1.854,1.854v4.715
					c0,1.024-0.83,1.854-1.854,1.854h-4.715c-1.024,0-1.854-0.83-1.854-1.854v-4.715
					C306.992,227.004,307.822,226.174,308.846,226.174z"/>
				<path style="opacity:0.53;fill:#2C3874;" d="M297.207,237.403h4.715c1.024,0,1.854,0.83,1.854,1.854v4.715
					c0,1.024-0.83,1.854-1.854,1.854h-4.715c-1.024,0-1.854-0.83-1.854-1.854v-4.715
					C295.353,238.233,296.183,237.403,297.207,237.403z"/>
				<path style="opacity:0.53;fill:#2C3874;" d="M297.207,226.174h4.715c1.024,0,1.854,0.83,1.854,1.854v4.715
					c0,1.024-0.83,1.854-1.854,1.854h-4.715c-1.024,0-1.854-0.83-1.854-1.854v-4.715
					C295.353,227.004,296.183,226.174,297.207,226.174z"/>
			</g>
		</g>
		<g>
			<circle style="opacity:0.53;fill:#2C3874;" cx="250" cy="247.264" r="39.815"/>
			<path style="fill:#CBF0FF;" d="M250,284.057c-20.288,0-36.793-16.505-36.793-36.793c0-20.288,16.505-36.792,36.793-36.792
				c20.287,0,36.792,16.505,36.792,36.792C286.793,267.552,270.288,284.057,250,284.057z M250,211.471
				c-19.736,0-35.793,16.057-35.793,35.792c0,19.736,16.057,35.793,35.793,35.793c19.736,0,35.792-16.057,35.792-35.793
				C285.793,227.528,269.736,211.471,250,211.471z"/>
			<g>
				<path style="fill:#FE6C03;" d="M267.36,273.299c-14.357,9.572-33.823,5.68-43.395-8.677
					c-9.572-14.357-5.679-33.823,8.677-43.395c4.232-2.822,9.145-4.584,14.207-5.096l0.604,5.969
					c-4.091,0.414-8.062,1.839-11.483,4.119c-11.604,7.736-14.75,23.471-7.014,35.075c7.736,11.604,23.471,14.75,35.074,7.013
					c11.604-7.736,14.75-23.47,7.014-35.074l4.992-3.328C285.609,244.262,281.716,263.728,267.36,273.299z"/>
				<path style="fill:#FEC303;" d="M268.067,229.619c-3.124-3.229-7.056-5.561-11.369-6.745c-1.408-0.386-2.855-0.651-4.298-0.785
					l0.557-5.974c1.792,0.167,3.585,0.495,5.33,0.974c5.348,1.469,10.222,4.359,14.093,8.358L268.067,229.619z"/>
			</g>
			
				<ellipse transform="matrix(0.3827 -0.9239 0.9239 0.3827 -74.1127 383.61)" style="opacity:0.53;fill:#2C3874;" cx="250" cy="247.264" rx="14.468" ry="14.468"/>
			<circle style="fill:#CBF0FF;" cx="250" cy="247.264" r="7.052"/>
			<polygon style="fill:#CBF0FF;" points="236.888,262.073 236.157,261.392 249.314,247.267 235.876,233.14 236.6,232.451 
				250.687,247.26 			"/>
			<path style="fill:#CBF0FF;" d="M239.232,233.095c0-1.496-1.213-2.709-2.709-2.709c-1.496,0-2.71,1.213-2.71,2.709
				c0,1.496,1.213,2.71,2.71,2.71C238.019,235.804,239.232,234.591,239.232,233.095z"/>
			<path style="fill:#CBF0FF;" d="M272.488,247.264c0-1.496-1.213-2.71-2.709-2.71s-2.709,1.213-2.709,2.71
				c0,1.496,1.213,2.709,2.709,2.709S272.488,248.76,272.488,247.264z"/>
			<path style="fill:#CBF0FF;" d="M239.232,261.732c0-1.496-1.213-2.709-2.709-2.709c-1.496,0-2.71,1.213-2.71,2.709
				c0,1.496,1.213,2.71,2.71,2.71C238.019,264.441,239.232,263.228,239.232,261.732z"/>
			<rect x="250" y="246.764" style="fill:#CBF0FF;" width="19.779" height="1"/>
		</g>
		<path style="fill:#FE6C03;" d="M199.996,277.719c0-0.94-0.762-1.702-1.702-1.702c-0.94,0-1.702,0.762-1.702,1.702
			c0,0.94,0.762,1.702,1.702,1.702C199.234,279.421,199.996,278.659,199.996,277.719z"/>
		<path style="fill:#FE6C03;" d="M199.996,271.538c0-0.94-0.762-1.702-1.702-1.702c-0.94,0-1.702,0.762-1.702,1.702
			s0.762,1.702,1.702,1.702C199.234,273.239,199.996,272.477,199.996,271.538z"/>
		<path style="fill:#FE6C03;" d="M199.996,265.356c0-0.94-0.762-1.702-1.702-1.702c-0.94,0-1.702,0.762-1.702,1.702
			s0.762,1.702,1.702,1.702C199.234,267.058,199.996,266.296,199.996,265.356z"/>
		<path style="fill:#FE6C03;" d="M199.996,259.175c0-0.94-0.762-1.702-1.702-1.702c-0.94,0-1.702,0.762-1.702,1.702
			c0,0.94,0.762,1.702,1.702,1.702C199.234,260.876,199.996,260.115,199.996,259.175z"/>
		<path style="fill:#FE6C03;" d="M199.996,252.993c0-0.94-0.762-1.702-1.702-1.702c-0.94,0-1.702,0.762-1.702,1.702
			c0,0.94,0.762,1.702,1.702,1.702C199.234,254.695,199.996,253.933,199.996,252.993z"/>
	</g>
</g>
<g id="TEXTS">
	
		<text transform="matrix(1 0 0 1 226.2052 107.3337)" style="fill:#1A234A; font-family:'Roboto-Black'; font-size:25px; letter-spacing:2;">api</text>
</g>
</svg>
