<svg xmlns="http://www.w3.org/2000/svg" width="26.667" height="24" viewBox="0 0 26.667 24">
  <path id="photo_camera_FILL0_wght400_GRAD0_opsz48" d="M17.333,25.133A5.58,5.58,0,0,0,23,19.433a5.424,5.424,0,0,0-1.633-4.017A5.509,5.509,0,0,0,17.333,13.8a5.525,5.525,0,0,0-5.667,5.633A5.55,5.55,0,0,0,13.283,23.5,5.465,5.465,0,0,0,17.333,25.133Zm0-2a3.537,3.537,0,0,1-2.633-1.05,3.623,3.623,0,0,1-1.033-2.65,3.525,3.525,0,0,1,1.033-2.6A3.567,3.567,0,0,1,17.333,15.8a3.581,3.581,0,0,1,2.617,1.033,3.5,3.5,0,0,1,1.05,2.6,3.592,3.592,0,0,1-1.05,2.65A3.551,3.551,0,0,1,17.333,23.133ZM6,30a1.919,1.919,0,0,1-1.4-.6A1.919,1.919,0,0,1,4,28V10.9a1.938,1.938,0,0,1,.6-1.383A1.894,1.894,0,0,1,6,8.9h4.9L13.333,6h8l2.433,2.9h4.9a1.913,1.913,0,0,1,1.383.617,1.913,1.913,0,0,1,.617,1.383V28a1.894,1.894,0,0,1-.617,1.4,1.938,1.938,0,0,1-1.383.6Zm22.667-2V10.9H22.833L20.4,8H14.267l-2.433,2.9H6V28ZM17.333,19.467Z" transform="translate(-4 -6)" fill="#ce1127"/>
</svg>
