<svg xmlns="http://www.w3.org/2000/svg" width="24.611" height="24.611" viewBox="0 0 24.611 24.611">
  <path id="photo_library_FILL0_wght400_GRAD0_opsz48" d="M12.152,19.474H24.181l-3.907-5.261-3.169,4.153L15.013,15.69ZM9.537,24.919a1.893,1.893,0,0,1-1.846-1.846V5.846a1.771,1.771,0,0,1,.554-1.292A1.771,1.771,0,0,1,9.537,4H26.765a1.771,1.771,0,0,1,1.292.554,1.771,1.771,0,0,1,.554,1.292V23.073a1.893,1.893,0,0,1-1.846,1.846Zm0-1.846H26.765V5.846H9.537ZM5.846,28.611a1.771,1.771,0,0,1-1.292-.554A1.771,1.771,0,0,1,4,26.765V7.692H5.846V26.765H24.919v1.846ZM9.537,5.846v0Z" transform="translate(-4 -4)" fill="#ce1127"/>
</svg>
