<svg xmlns="http://www.w3.org/2000/svg" width="90.917" height="90.917" viewBox="0 0 90.917 90.917">
  <path id="photo_FILL0_wght400_GRAD0_opsz48" d="M13.576,96.917a7.269,7.269,0,0,1-5.3-2.273A7.269,7.269,0,0,1,6,89.34V13.576a7.269,7.269,0,0,1,2.273-5.3A7.269,7.269,0,0,1,13.576,6H89.34a7.269,7.269,0,0,1,5.3,2.273,7.269,7.269,0,0,1,2.273,5.3V89.34a7.768,7.768,0,0,1-7.576,7.576Zm0-7.576H89.34V13.576H13.576Zm7.071-12.249H82.4L63.833,52.342,47.165,73.935,35.422,57.9ZM13.576,89.34v0Z" transform="translate(-6 -6)" fill="#dbdbdb"/>
</svg>
