<svg xmlns="http://www.w3.org/2000/svg" xmlns:xlink="http://www.w3.org/1999/xlink" width="50.901" height="33.479" viewBox="0 0 50.901 33.479">
  <defs>
    <filter id="Knob" x="18.422" y="0" width="32.479" height="32.479" filterUnits="userSpaceOnUse">
      <feOffset input="SourceAlpha"/>
      <feGaussianBlur stdDeviation="0.5" result="blur"/>
      <feFlood flood-opacity="0.122"/>
      <feComposite operator="in" in2="blur"/>
      <feComposite in="SourceGraphic"/>
    </filter>
    <filter id="Knob-2" x="18.422" y="1" width="32.479" height="32.479" filterUnits="userSpaceOnUse">
      <feOffset dy="1" input="SourceAlpha"/>
      <feGaussianBlur stdDeviation="0.5" result="blur-2"/>
      <feFlood flood-opacity="0.239"/>
      <feComposite operator="in" in2="blur-2"/>
      <feComposite in="SourceGraphic"/>
    </filter>
  </defs>
  <g id="Group_12" data-name="Group 12" transform="translate(-347.549 -297.26)">
    <g id="Group_11" data-name="Group 11" transform="translate(0 0.857)">
      <path id="Track" d="M35.976,21.105H11.549A8.261,8.261,0,0,1,3,13.053,8.261,8.261,0,0,1,11.549,5H35.976a8.261,8.261,0,0,1,8.549,8.053A8.261,8.261,0,0,1,35.976,21.105Z" transform="translate(393.575 326.248) rotate(180)" fill="rgba(1,43,127,0.26)" stroke="#fcfcfc" stroke-width="3"/>
    </g>
    <g id="Knob-3" data-name="Knob" transform="translate(375.408 328.434) rotate(-110)">
      <g transform="matrix(-0.34, 0.94, -0.94, -0.34, 38.82, -15.52)" filter="url(#Knob)">
        <circle id="Knob-4" data-name="Knob" cx="11.5" cy="11.5" r="11.5" transform="translate(27.79 30.98) rotate(-110)" fill="#012b7f"/>
      </g>
      <g transform="matrix(-0.34, 0.94, -0.94, -0.34, 38.82, -15.52)" filter="url(#Knob-2)">
        <circle id="Knob-5" data-name="Knob" cx="11.5" cy="11.5" r="11.5" transform="translate(27.79 30.98) rotate(-110)" fill="#012b7f"/>
      </g>
    </g>
  </g>
</svg>
