<svg xmlns="http://www.w3.org/2000/svg" xmlns:xlink="http://www.w3.org/1999/xlink" width="49.5" height="28" viewBox="0 0 49.5 28">
  <defs>
    <filter id="Knob" x="0" y="0.5" width="26" height="26" filterUnits="userSpaceOnUse">
      <feOffset input="SourceAlpha"/>
      <feGaussianBlur stdDeviation="0.5" result="blur"/>
      <feFlood flood-opacity="0.122"/>
      <feComposite operator="in" in2="blur"/>
      <feComposite in="SourceGraphic"/>
    </filter>
    <filter id="Knob-2" x="0" y="1.5" width="26" height="26" filterUnits="userSpaceOnUse">
      <feOffset dy="1" input="SourceAlpha"/>
      <feGaussianBlur stdDeviation="0.5" result="blur-2"/>
      <feFlood flood-opacity="0.239"/>
      <feComposite operator="in" in2="blur-2"/>
      <feComposite in="SourceGraphic"/>
    </filter>
  </defs>
  <g id="Switches_Tumbler_Off" data-name="Switches Tumbler Off" transform="translate(1.2)">
    <rect id="Bounds" width="48" height="28" transform="translate(0.3)" fill="none"/>
    <path id="Track" d="M35.976,21.105H11.549A8.261,8.261,0,0,1,3,13.053,8.261,8.261,0,0,1,11.549,5H35.976a8.261,8.261,0,0,1,8.549,8.053A8.261,8.261,0,0,1,35.976,21.105Z" transform="translate(0.437 0.752)" fill="rgba(34,31,31,0.26)" stroke="#fcfcfc" stroke-width="3"/>
    <g id="Knob-3" data-name="Knob" transform="translate(0.094 2)">
      <g transform="matrix(1, 0, 0, 1, -1.29, -2)" filter="url(#Knob)">
        <circle id="Knob-4" data-name="Knob" cx="11.5" cy="11.5" r="11.5" transform="translate(1.5 2)" fill="#f1f1f1"/>
      </g>
      <g transform="matrix(1, 0, 0, 1, -1.29, -2)" filter="url(#Knob-2)">
        <circle id="Knob-5" data-name="Knob" cx="11.5" cy="11.5" r="11.5" transform="translate(1.5 2)" fill="#f1f1f1"/>
      </g>
    </g>
  </g>
</svg>
